<svg width="45" height="45" viewBox="0 0 45 45" fill="none" xmlns="http://www.w3.org/2000/svg">
<path d="M22.229 44.3446C34.2864 44.3446 44.0609 34.5702 44.0609 22.5128C44.0609 10.4554 34.2864 0.680969 22.229 0.680969C10.1717 0.680969 0.397217 10.4554 0.397217 22.5128C0.397217 34.5702 10.1717 44.3446 22.229 44.3446Z" fill="#EFFAEC"/>
<path d="M11.8708 15.4612C12.3664 15.4612 12.8601 15.5137 13.353 15.6169C13.8458 15.72 14.2723 15.8711 14.6334 16.0664L14.3487 16.9655C13.9821 16.7757 13.6072 16.6338 13.2249 16.539C12.8426 16.4441 12.3913 16.3971 11.8717 16.3971C10.9358 16.3971 10.1639 16.7702 9.55496 17.5163C8.94606 18.2625 8.64207 19.2325 8.64207 20.4254V22.2604C9.0087 21.7464 9.48311 21.3355 10.0644 21.026C10.6447 20.7174 11.2877 20.5626 11.9915 20.5626C13.1715 20.5626 14.0927 20.9477 14.7531 21.7187C15.4136 22.4897 15.7443 23.5325 15.7443 24.847C15.7443 26.1505 15.3731 27.2025 14.6297 28.0039C13.8863 28.8053 12.909 29.206 11.6976 29.206C10.4982 29.206 9.50798 28.75 8.72406 27.839C7.94014 26.928 7.54956 25.6945 7.54956 24.1414V20.5258C7.54956 19.0455 7.96409 17.8314 8.79315 16.8826C9.6222 15.9337 10.6475 15.4612 11.8708 15.4612ZM11.6875 21.4626C10.9653 21.4626 10.3278 21.657 9.77419 22.0448C9.22057 22.4335 8.84289 22.9273 8.64115 23.527V24.2243C8.64115 25.4541 8.92856 26.437 9.50337 27.1748C10.0782 27.9127 10.8096 28.2802 11.6967 28.2802C12.6013 28.2802 13.3189 27.956 13.8485 27.3075C14.3773 26.659 14.6417 25.8391 14.6417 24.8479C14.6417 23.772 14.392 22.9383 13.8937 22.3479C13.3963 21.7574 12.6602 21.4626 11.6875 21.4626Z" fill="#00B956"/>
<path d="M11.6968 29.5589C10.3961 29.5589 9.30541 29.0577 8.45609 28.0693C7.61966 27.0966 7.19592 25.7756 7.19592 24.1414V20.5258C7.19592 18.9644 7.64361 17.661 8.5261 16.6505C9.42148 15.627 10.5462 15.1075 11.87 15.1075C12.3867 15.1075 12.91 15.1628 13.4249 15.2715C13.9463 15.382 14.4096 15.545 14.8002 15.756C14.9494 15.8361 15.0195 16.0112 14.9688 16.1724L14.6841 17.0714C14.6528 17.17 14.5791 17.2501 14.4833 17.2907C14.3875 17.3303 14.2788 17.3257 14.1867 17.2778C13.8459 17.1018 13.494 16.9683 13.1393 16.8798C12.7856 16.7923 12.3591 16.7481 11.8709 16.7481C11.0391 16.7481 10.3703 17.0724 9.82679 17.7374C9.27409 18.4154 8.99405 19.3191 8.99405 20.4236V21.3411C9.26304 21.0997 9.5661 20.8906 9.89772 20.7137C10.5269 20.3794 11.2307 20.2089 11.9897 20.2089C13.2729 20.2089 14.2917 20.6391 15.0195 21.4885C15.7334 22.3212 16.0954 23.4515 16.0954 24.8471C16.0954 26.2362 15.6891 27.3794 14.8868 28.2434C14.078 29.1167 13.0048 29.5589 11.6968 29.5589ZM11.8709 15.814C10.7434 15.814 9.82403 16.2396 9.05762 17.1156C8.29028 17.9935 7.90154 19.1404 7.90154 20.5268V24.1424C7.90154 25.6024 8.26725 26.7695 8.99037 27.6106C9.70981 28.4479 10.5951 28.8551 11.6968 28.8551C12.816 28.8551 13.6902 28.4986 14.37 27.7663C15.0471 27.0367 15.3907 26.0547 15.3907 24.8489C15.3907 23.6265 15.0858 22.651 14.4852 21.95C13.8901 21.2554 13.0739 20.9173 11.9906 20.9173C11.3477 20.9173 10.7553 21.0592 10.2293 21.3392C10.0534 21.4332 9.88759 21.5364 9.73284 21.6515C10.3076 21.2932 10.9644 21.1117 11.6876 21.1117C12.7644 21.1117 13.5972 21.4516 14.1637 22.1222C14.7145 22.7753 14.9946 23.6937 14.9946 24.8498C14.9946 25.9193 14.7007 26.8221 14.1213 27.5323C13.5244 28.2637 12.7082 28.6349 11.6968 28.6349C10.6991 28.6349 9.86825 28.2167 9.22527 27.3932C8.60348 26.5964 8.28844 25.5306 8.28844 24.2262V23.5289C8.28844 23.4902 8.29488 23.4524 8.30686 23.4165C8.4045 23.1254 8.54084 22.8555 8.7131 22.6077C8.65414 22.6215 8.59334 22.6187 8.53347 22.5985C8.387 22.5515 8.28844 22.4161 8.28844 22.2632V20.4282C8.28844 19.157 8.6219 18.1041 9.28054 17.2971C9.95668 16.4681 10.8281 16.048 11.8709 16.048C12.4153 16.048 12.8998 16.0996 13.3088 16.2009C13.587 16.27 13.8634 16.363 14.1342 16.4791L14.2061 16.2543C13.9334 16.1346 13.623 16.0379 13.2812 15.966C12.8132 15.8638 12.3398 15.814 11.8709 15.814ZM8.99405 23.5869V24.2243C8.99405 25.3675 9.25935 26.2878 9.78166 26.9575C10.2901 27.6097 10.9165 27.9275 11.6968 27.9275C12.4982 27.9275 13.1126 27.652 13.576 27.0846C14.0559 26.496 14.2899 25.7636 14.2899 24.848C14.2899 23.8623 14.066 23.0977 13.6257 22.5745C13.1937 22.0633 12.5599 21.8146 11.6876 21.8146C11.0345 21.8146 10.4753 21.984 9.97695 22.3332C9.49886 22.6694 9.17645 23.0802 8.99405 23.5869Z" fill="#00B956"/>
<path d="M26.3949 24.2981C26.3949 25.8217 26.0264 27.0211 25.2895 27.8952C24.5525 28.7704 23.542 29.207 22.257 29.207C20.9719 29.207 19.9568 28.7685 19.2107 27.8906C18.4636 27.0128 18.0914 25.8152 18.0914 24.2981V20.3711C18.0914 18.8604 18.4617 17.6647 19.2014 16.7831C19.9421 15.9016 20.9544 15.4612 22.2386 15.4612C23.5227 15.4612 24.5369 15.9016 25.2803 16.7831C26.0237 17.6638 26.3949 18.8595 26.3949 20.3711V24.2981ZM25.2941 20.1961C25.2941 19.0271 25.0297 18.1022 24.5 17.4206C23.9713 16.738 23.2168 16.3972 22.2386 16.3972C21.2603 16.3972 20.5058 16.7398 19.9762 17.4252C19.4465 18.1105 19.183 19.0345 19.183 20.1961V24.463C19.183 25.619 19.4502 26.5439 19.9863 27.2384C20.5215 27.9321 21.2778 28.2794 22.257 28.2794C23.2297 28.2794 23.9787 27.9339 24.5046 27.2431C25.0306 26.5522 25.2932 25.6255 25.2932 24.463L25.2941 20.1961Z" fill="#00B956"/>
<path d="M22.2572 29.5589C20.8699 29.5589 19.7544 29.0743 18.9419 28.1181C18.1432 27.1795 17.7379 25.8935 17.7379 24.2971V20.3701C17.7379 18.7811 18.1395 17.4979 18.9308 16.5556C19.7378 15.5957 20.8506 15.1084 22.2379 15.1084C23.6251 15.1084 24.7388 15.5948 25.5485 16.5556C26.3435 17.497 26.747 18.7811 26.747 20.3701V24.2971C26.747 25.899 26.3472 27.185 25.5578 28.1209C24.7554 29.0762 23.6445 29.5589 22.2572 29.5589ZM22.2388 15.814C21.0523 15.814 20.1468 16.2046 19.4716 17.0097C18.7899 17.8213 18.4445 18.9515 18.4445 20.3701V24.2971C18.4445 25.7212 18.7927 26.8534 19.4799 27.6612C20.1615 28.4636 21.0707 28.8532 22.2581 28.8532C23.4446 28.8532 24.3483 28.4654 25.0216 27.6668C25.6996 26.8617 26.0441 25.7277 26.0441 24.2971V20.3701C26.0441 18.9515 25.6969 17.8213 25.0124 17.0106C24.3317 16.2055 23.4252 15.814 22.2388 15.814ZM22.2572 28.6331C21.1674 28.6331 20.3098 28.236 19.7065 27.454C19.1252 26.7004 18.8304 25.6945 18.8304 24.4629V20.196C18.8304 18.9589 19.1224 17.9539 19.6973 17.2096C20.2942 16.4367 21.149 16.0443 22.2379 16.0443C23.3267 16.0443 24.1815 16.4349 24.7775 17.2041C25.3533 17.9456 25.6453 18.9525 25.6453 20.196V24.4629C25.6453 25.6982 25.356 26.706 24.784 27.4567C24.1917 28.237 23.3405 28.6331 22.2572 28.6331ZM22.2388 16.7499C21.3673 16.7499 20.7188 17.041 20.2555 17.6407C19.7774 18.2588 19.536 19.1192 19.536 20.196V24.4629C19.536 25.5342 19.7811 26.3955 20.2656 27.0229C20.7345 27.6318 21.3858 27.9265 22.2572 27.9265C23.1213 27.9265 23.7652 27.6327 24.2248 27.0284C24.7011 26.4029 24.9415 25.5398 24.9415 24.462V20.1951C24.9415 19.1118 24.6992 18.2505 24.2221 17.6361C23.7587 17.0401 23.1102 16.7499 22.2388 16.7499Z" fill="#00B956"/>
<path d="M33.9292 22.2245H37.9944V23.2525H33.9292V27.6751H32.8192V23.2525H28.8361V22.2245H32.8183V17.9484H33.9283L33.9292 22.2245Z" fill="#00B956"/>
<path d="M33.9292 28.027H32.8192C32.6248 28.027 32.4664 27.8694 32.4664 27.6741V23.6044H28.8369C28.6426 23.6044 28.4841 23.4469 28.4841 23.2516V22.2236C28.4841 22.0292 28.6417 21.8708 28.8369 21.8708H32.4664V17.9475C32.4664 17.7531 32.6239 17.5947 32.8192 17.5947H33.9292C34.1236 17.5947 34.282 17.7522 34.282 17.9475V21.8708H37.9943C38.1887 21.8708 38.3471 22.0283 38.3471 22.2236V23.2516C38.3471 23.446 38.1896 23.6044 37.9943 23.6044H34.282V27.6741C34.2811 27.8694 34.1236 28.027 33.9292 28.027ZM33.1711 27.3223H33.5755V23.2525C33.5755 23.0581 33.733 22.8997 33.9283 22.8997H37.6406V22.5773H33.9283C33.7339 22.5773 33.5755 22.4198 33.5755 22.2245V18.3012H33.1711V22.2245C33.1711 22.4189 33.0135 22.5773 32.8183 22.5773H29.1888V22.8997H32.8183C33.0126 22.8997 33.1711 23.0572 33.1711 23.2525V27.3223Z" fill="#00B956"/>
</svg>
