<svg width="98" height="93" viewBox="0 0 98 93" fill="none" xmlns="http://www.w3.org/2000/svg">
<path d="M70.4929 0.0460205C69.1535 0.0460205 67.8611 0.780196 67.2136 2.05326L24.1054 86.8427C23.187 88.6473 23.9082 90.8618 25.7146 91.7811C27.4861 92.683 29.7568 91.9239 30.6512 90.1718L73.7594 5.38422C74.2052 4.50911 74.2817 3.51332 73.9796 2.58017C73.6747 1.64886 73.028 0.889816 72.152 0.44581C71.6186 0.174064 71.053 0.0460205 70.4929 0.0460205Z" fill="#00B956" fill-opacity="0.18"/>
<path d="M20.1778 6.61401C9.22684 6.61401 0.319092 15.5218 0.319092 26.4727C0.319092 37.4236 9.22684 46.3332 20.1778 46.3332C31.1287 46.3332 40.0364 37.4236 40.0364 26.4727C40.0364 15.5218 31.1287 6.61401 20.1778 6.61401ZM20.1778 38.9878C13.2772 38.9878 7.6636 33.3732 7.6636 26.4736C7.6636 19.574 13.2782 13.9595 20.1778 13.9595C27.0783 13.9595 32.6919 19.574 32.6919 26.4736C32.6919 33.3732 27.0783 38.9878 20.1778 38.9878Z" fill="#00B956" fill-opacity="0.18"/>
<path d="M77.9496 45.8938C66.9987 45.8938 58.0909 54.8016 58.0909 65.7525C58.0909 76.7034 66.9987 85.6111 77.9496 85.6111C88.9005 85.6111 97.8083 76.7034 97.8083 65.7525C97.8083 54.8016 88.9005 45.8938 77.9496 45.8938ZM77.9496 78.2666C71.0491 78.2666 65.4355 72.6521 65.4355 65.7525C65.4355 58.8529 71.05 53.2383 77.9496 53.2383C84.8492 53.2383 90.4638 58.8529 90.4638 65.7525C90.4638 72.6521 84.8492 78.2666 77.9496 78.2666Z" fill="#00B956" fill-opacity="0.18"/>
</svg>
