<svg width="92" height="32" viewBox="0 0 92 32" fill="none" xmlns="http://www.w3.org/2000/svg">
<path d="M7.94608 8.17564L7.96082 8.21894C7.98017 9.20275 7.63473 10.0254 6.9245 10.6877C6.21427 11.35 5.27652 11.6807 4.11031 11.6807C2.92568 11.6807 1.95937 11.2607 1.21322 10.4215C0.467066 9.58228 0.0939941 8.5174 0.0939941 7.22591V5.36146C0.0939941 4.07089 0.467066 3.00417 1.21322 2.16222C1.95937 1.32027 2.92476 0.899292 4.11031 0.899292C5.29586 0.899292 6.23822 1.21525 6.93832 1.84533C7.63933 2.47634 7.97924 3.31277 7.9599 4.35369L7.94516 4.39699H6.58458C6.58458 3.66281 6.36903 3.08247 5.937 2.65505C5.50497 2.22854 4.89608 2.01483 4.10939 2.01483C3.3181 2.01483 2.6871 2.33448 2.21638 2.97193C1.74566 3.61031 1.51076 4.40159 1.51076 5.34672V7.22499C1.51076 8.18025 1.74566 8.97614 2.21638 9.61452C2.6871 10.2529 3.31718 10.5716 4.10939 10.5716C4.89608 10.5716 5.50589 10.3597 5.937 9.93508C6.36811 9.51042 6.58458 8.92364 6.58458 8.17564H7.94608Z" fill="black"/>
<path d="M11.8659 8.22634H11.1391V11.5297H9.72144V3.74298H11.1391V7.03157H11.7434L14.5281 3.74298H16.1908L16.2056 3.77891L12.9741 7.47834L16.4497 11.4937L16.435 11.5297H14.693L11.8659 8.22634Z" fill="black"/>
<path d="M22.7805 3.74298H24.1982V11.5297H22.7805V6.00262L22.7372 5.98788L19.2975 11.5297H17.8872V3.74298H19.2975V9.27002L19.3408 9.28476L22.7805 3.74298Z" fill="black"/>
<path d="M26.5315 10.4215C26.9055 10.4215 27.1772 10.1138 27.3486 9.49664C27.519 8.88037 27.6415 7.93893 27.7189 6.67231L27.9059 3.74298H33.0727V10.4215H34.1017V14.1062H32.684V11.5297H27.1855V14.1062H25.7678V10.4215H26.5315ZM29.1439 6.67139C29.0859 7.58796 29.0085 8.34425 28.9099 8.94209C28.8114 9.53901 28.6631 10.0328 28.4678 10.4206H31.656V5.00223H29.2452L29.1439 6.67139Z" fill="black"/>
<path d="M37.9151 8.22634H37.1883V11.5297H35.7706V3.74298H37.1883V7.03157H37.7926L40.5773 3.74298H42.24L42.2548 3.77891L39.0233 7.47834L42.4989 11.4937L42.4841 11.5297H40.7422L37.9151 8.22634Z" fill="black"/>
<path d="M48.8277 3.74298H50.2454V11.5297H48.8277V6.00262L48.7844 5.98788L45.3448 11.5297H43.9344V3.74298H45.3448V9.27002L45.3881 9.28476L48.8277 3.74298Z" fill="black"/>
<path d="M6.58721 28.1108H5.16952V21.447H1.69393V28.1108H0.276245V20.3241H6.58813L6.58721 28.1108Z" fill="black"/>
<path d="M12.0013 28.2618C10.883 28.2618 10.0115 27.9044 9.38515 27.1896C8.75875 26.4747 8.44556 25.5342 8.44556 24.368V24.052C8.44556 22.9347 8.76888 22.0098 9.41371 21.2775C10.0585 20.5461 10.8471 20.1804 11.7774 20.1804C12.8184 20.1804 13.5995 20.5046 14.12 21.1522C14.6404 21.7998 14.9011 22.6611 14.9011 23.7361V24.485H9.92127L9.90009 24.5209C9.90009 25.303 10.0733 25.9377 10.4187 26.4241C10.7641 26.9114 11.292 27.1546 12.0022 27.1546C12.4821 27.1546 12.9031 27.0864 13.2651 26.9491C13.6272 26.8119 13.9376 26.624 14.1974 26.3845L14.7519 27.3056C14.4737 27.5746 14.1071 27.8012 13.6511 27.9855C13.1951 28.1697 12.6452 28.2618 12.0013 28.2618ZM11.7784 21.295C11.2846 21.295 10.8756 21.4857 10.5514 21.867C10.2271 22.2484 10.03 22.7366 9.9572 23.3317L9.97194 23.3676H13.4844V23.2525C13.4844 22.6869 13.3453 22.2189 13.0671 21.8495C12.7889 21.4801 12.3587 21.295 11.7784 21.295Z" fill="black"/>
<path d="M22.997 28.1108H21.5793V24.8001H18.1102V28.1108H16.6925V20.3241H18.1102V23.6919H21.5793V20.3241H22.997V28.1108Z" fill="black"/>
<path d="M28.2832 27.1536C28.7198 27.1536 29.1012 27.009 29.4273 26.7179C29.7534 26.4278 29.9165 26.0713 29.9165 25.6494H31.1978L31.219 25.6927C31.2383 26.3642 30.95 26.9602 30.3549 27.4807C29.7598 28.0011 29.069 28.2618 28.2823 28.2618C27.1879 28.2618 26.3441 27.8906 25.7491 27.1463C25.154 26.4029 24.8564 25.4762 24.8564 24.368V24.0659C24.8564 22.9678 25.1549 22.0448 25.7528 21.2987C26.3497 20.5525 27.1925 20.1794 28.2823 20.1794C29.15 20.1794 29.8621 20.4484 30.4157 20.9855C30.9703 21.5225 31.2374 22.183 31.2181 22.9641L31.2033 23.0074H29.9155C29.9155 22.5321 29.7608 22.1286 29.4513 21.7952C29.1418 21.4617 28.7521 21.295 28.2814 21.295C27.5859 21.295 27.0783 21.5649 26.7596 22.1047C26.4409 22.6445 26.2806 23.2985 26.2806 24.0659V24.368C26.2806 25.1501 26.4381 25.8097 26.7522 26.3467C27.0682 26.8847 27.5785 27.1536 28.2832 27.1536Z" fill="black"/>
<path d="M37.9173 20.3241H39.335V28.1108H37.9173V22.5837L37.874 22.569L34.4344 28.1108H33.024V20.3241H34.4344V25.8511L34.4777 25.8659L37.9173 20.3241Z" fill="black"/>
<path d="M41.1725 24.1451C41.1725 22.9936 41.4848 22.0448 42.1085 21.2987C42.7321 20.5525 43.5796 20.1794 44.6491 20.1794C45.7287 20.1794 46.5817 20.5516 47.2072 21.295C47.8336 22.0393 48.1468 22.989 48.1468 24.1451V24.3035C48.1468 25.4651 47.8345 26.4149 47.2108 27.1536C46.5872 27.8924 45.7379 28.2618 44.6629 28.2618C43.5879 28.2618 42.7376 27.8915 42.1112 27.15C41.4848 26.4084 41.1716 25.4605 41.1716 24.3035L41.1725 24.1451ZM42.5912 24.3035C42.5912 25.1289 42.7643 25.8106 43.1125 26.3476C43.4607 26.8847 43.9766 27.1536 44.6638 27.1536C45.3399 27.1536 45.854 26.8847 46.204 26.3476C46.554 25.8106 46.7291 25.1289 46.7291 24.3035V24.1451C46.7291 23.3299 46.5531 22.651 46.2003 22.1084C45.8475 21.5667 45.3307 21.295 44.6491 21.295C43.9729 21.295 43.4607 21.5658 43.1125 22.1084C42.7643 22.651 42.5912 23.3299 42.5912 24.1451V24.3035Z" fill="black"/>
<path d="M56.2898 28.1108H54.8721V24.8001H51.4029V28.1108H49.9852V20.3241H51.4029V23.6919H54.8721V20.3241H56.2898V28.1108Z" fill="black"/>
<path d="M61.7067 28.2618C60.5884 28.2618 59.717 27.9044 59.0906 27.1896C58.4642 26.4747 58.151 25.5342 58.151 24.368V24.052C58.151 22.9347 58.4743 22.0098 59.1192 21.2775C59.764 20.5461 60.5525 20.1804 61.4829 20.1804C62.5238 20.1804 63.305 20.5046 63.8254 21.1522C64.3459 21.7998 64.6066 22.6611 64.6066 23.7361V24.485H59.6267L59.6055 24.5209C59.6055 25.303 59.7787 25.9377 60.1242 26.4241C60.4696 26.9114 60.9974 27.1546 61.7077 27.1546C62.1876 27.1546 62.6086 27.0864 62.9706 26.9491C63.3326 26.8119 63.643 26.624 63.9028 26.3845L64.4574 27.3056C64.1792 27.5746 63.8125 27.8012 63.3566 27.9855C62.9006 28.1697 62.3497 28.2618 61.7067 28.2618ZM61.4829 21.295C60.9891 21.295 60.5801 21.4857 60.2559 21.867C59.9316 22.2484 59.7345 22.7366 59.6617 23.3317L59.6765 23.3676H63.1889V23.2525C63.1889 22.6869 63.0498 22.2189 62.7716 21.8495C62.4934 21.4801 62.0632 21.295 61.4829 21.295Z" fill="black"/>
<path d="M73.0313 24.5126C73.0313 25.6355 72.7624 26.5411 72.2253 27.2292C71.6883 27.9182 70.9467 28.2618 70.0016 28.2618C69.5217 28.2618 69.1007 28.1817 68.7387 28.0205C68.3767 27.8593 68.0681 27.6188 67.8138 27.2973V31.1046H66.3961V20.3241H67.4831L67.706 21.3318C67.9603 20.9578 68.2772 20.6723 68.6558 20.4751C69.0344 20.2789 69.4765 20.1804 69.9804 20.1804C70.9449 20.1804 71.6938 20.5636 72.229 21.3281C72.7642 22.0936 73.0313 23.1051 73.0313 24.3616V24.5126ZM71.6136 24.3606C71.6136 23.4782 71.4405 22.7523 71.0923 22.1839C70.7441 21.6155 70.2319 21.3309 69.5558 21.3309C69.1486 21.3309 68.8004 21.4239 68.5121 21.6082C68.2237 21.7933 67.9916 22.0467 67.8138 22.3672V26.1311C67.9907 26.4526 68.2237 26.7032 68.5121 26.8828C68.8004 27.0625 69.1523 27.1527 69.5696 27.1527C70.2411 27.1527 70.7496 26.9068 71.095 26.4149C71.4405 25.923 71.6136 25.2883 71.6136 24.5117V24.3606Z" fill="black"/>
<path d="M79.5829 28.1108C79.534 27.8759 79.4972 27.6686 79.4714 27.488C79.4447 27.3084 79.429 27.1269 79.4244 26.9446C79.16 27.3186 78.8164 27.6317 78.3918 27.8842C77.9671 28.1366 77.5102 28.2618 77.0211 28.2618C76.2095 28.2618 75.5923 28.0546 75.1677 27.6391C74.743 27.2246 74.5311 26.6525 74.5311 25.923C74.5311 25.1796 74.8314 24.5983 75.4339 24.1773C76.0354 23.7573 76.8525 23.5473 77.8842 23.5473H79.4244V22.7772C79.4244 22.3212 79.2853 21.9601 79.0071 21.6939C78.728 21.4276 78.3356 21.2941 77.8271 21.2941C77.3665 21.2941 76.9944 21.4092 76.7116 21.6395C76.4278 21.8698 76.2869 22.1462 76.2869 22.4667L74.9411 22.4815L74.9263 22.4382C74.8922 21.8726 75.1575 21.354 75.7213 20.8832C76.2841 20.4134 77.0128 20.1776 77.9054 20.1776C78.7879 20.1776 79.4981 20.4024 80.0361 20.8501C80.5731 21.2987 80.8421 21.9453 80.8421 22.7891V26.5383C80.8421 26.8165 80.8568 27.0855 80.8854 27.3443C80.914 27.6032 80.9665 27.8584 81.0438 28.1071H79.5829V28.1108ZM77.2292 27.0744C77.7423 27.0744 78.2057 26.9427 78.6184 26.6783C79.0302 26.4149 79.2991 26.1127 79.4244 25.7719V24.5053H77.8335C77.2624 24.5053 76.8055 24.649 76.4628 24.9373C76.1192 25.2256 75.9479 25.5637 75.9479 25.9524C75.9479 26.2979 76.0557 26.5715 76.2721 26.7732C76.4886 26.975 76.8064 27.0744 77.2292 27.0744Z" fill="black"/>
<path d="M87.4034 26.2537H87.4467L89.9947 20.3232H91.7651V28.1099H90.3475V22.7053L90.3042 22.6906L87.9146 28.1099H86.9354L84.5026 22.5681L84.4593 22.5828V28.1099H83.0416V20.3232H84.8692L87.4034 26.2537Z" fill="black"/>
</svg>
