<svg width="45" height="45" viewBox="0 0 45 45" fill="none" xmlns="http://www.w3.org/2000/svg">
<path d="M22.6077 44.3446C34.6651 44.3446 44.4395 34.5702 44.4395 22.5128C44.4395 10.4554 34.6651 0.680969 22.6077 0.680969C10.5503 0.680969 0.775879 10.4554 0.775879 22.5128C0.775879 34.5702 10.5503 44.3446 22.6077 44.3446Z" fill="#EFFAEC"/>
<path d="M27.2565 12.5217C26.9663 12.5217 26.6854 12.6811 26.5453 12.9574L17.1963 31.3459C16.9974 31.7374 17.154 32.2173 17.5455 32.4172C17.9296 32.6125 18.4224 32.4486 18.6159 32.0681L27.9649 13.6806C28.0616 13.4908 28.0782 13.2752 28.0128 13.0726C27.9464 12.8709 27.8064 12.706 27.6167 12.6102C27.5006 12.5503 27.3781 12.5217 27.2565 12.5217Z" fill="#00B956"/>
<path d="M16.3438 13.9468C13.9691 13.9468 12.0374 15.8785 12.0374 18.2533C12.0374 20.6281 13.9691 22.5607 16.3438 22.5607C18.7186 22.5607 20.6503 20.6281 20.6503 18.2533C20.6503 15.8785 18.7186 13.9468 16.3438 13.9468ZM16.3438 20.967C14.8469 20.967 13.6301 19.7493 13.6301 18.2533C13.6301 16.7573 14.8479 15.5395 16.3438 15.5395C17.8398 15.5395 19.0576 16.7573 19.0576 18.2533C19.0576 19.7493 17.8407 20.967 16.3438 20.967Z" fill="#00B956"/>
<path d="M28.873 22.4649C26.4982 22.4649 24.5665 24.3966 24.5665 26.7714C24.5665 29.1462 26.4982 31.0779 28.873 31.0779C31.2478 31.0779 33.1795 29.1462 33.1795 26.7714C33.1804 24.3975 31.2478 22.4649 28.873 22.4649ZM28.873 29.4861C27.3761 29.4861 26.1592 28.2683 26.1592 26.7723C26.1592 25.2754 27.377 24.0585 28.873 24.0585C30.369 24.0585 31.5868 25.2763 31.5868 26.7723C31.5877 28.2683 30.3699 29.4861 28.873 29.4861Z" fill="#00B956"/>
</svg>
