<svg width="209" height="93" viewBox="0 0 209 93" fill="none" xmlns="http://www.w3.org/2000/svg">
<path d="M180.87 -0.00109863C179.53 -0.00109863 178.238 0.733077 177.59 2.00614L134.482 86.7956C133.564 88.6002 134.285 90.8147 136.091 91.734C137.863 92.6358 140.133 91.8768 141.028 90.1247L184.136 5.3371C184.582 4.46199 184.658 3.4662 184.356 2.53305C184.051 1.60174 183.405 0.842697 182.529 0.398691C181.995 0.127866 181.43 -0.00109863 180.87 -0.00109863Z" fill="#00B956" fill-opacity="0.18"/>
<path d="M130.554 6.56781C119.604 6.56781 110.696 15.4756 110.696 26.4265C110.696 37.3774 119.604 46.287 130.554 46.287C141.505 46.287 150.413 37.3774 150.413 26.4265C150.413 15.4756 141.505 6.56781 130.554 6.56781ZM130.554 38.9406C123.654 38.9406 118.04 33.3261 118.04 26.4265C118.04 19.5269 123.655 13.9123 130.554 13.9123C137.455 13.9123 143.069 19.5269 143.069 26.4265C143.069 33.3261 137.455 38.9406 130.554 38.9406Z" fill="#00B956" fill-opacity="0.18"/>
<path d="M188.326 45.8476C177.375 45.8476 168.468 54.7553 168.468 65.7063C168.468 76.6572 177.375 85.5649 188.326 85.5649C199.277 85.5649 208.185 76.6572 208.185 65.7063C208.185 54.7553 199.277 45.8476 188.326 45.8476ZM188.326 78.2204C181.426 78.2204 175.812 72.6059 175.812 65.7063C175.812 58.8067 181.427 53.1921 188.326 53.1921C195.226 53.1921 200.84 58.8067 200.84 65.7063C200.84 72.6059 195.226 78.2204 188.326 78.2204Z" fill="#00B956" fill-opacity="0.18"/>
<path d="M8.32499 37.1756L8.33973 37.2189C8.35907 38.2028 8.01363 39.0254 7.30341 39.6877C6.59318 40.35 5.65543 40.6807 4.48922 40.6807C3.30459 40.6807 2.33827 40.2607 1.59212 39.4215C0.845972 38.5823 0.4729 37.5174 0.4729 36.2259V34.3615C0.4729 33.0709 0.845972 32.0042 1.59212 31.1622C2.33827 30.3203 3.30367 29.8993 4.48922 29.8993C5.67477 29.8993 6.61713 30.2153 7.31722 30.8453C8.01824 31.4763 8.35815 32.3128 8.33881 33.3537L8.32406 33.397H6.96349C6.96349 32.6628 6.74793 32.0825 6.3159 31.655C5.88387 31.2285 5.27498 31.0148 4.4883 31.0148C3.69701 31.0148 3.06601 31.3345 2.59529 31.9719C2.12457 32.6103 1.88967 33.4016 1.88967 34.3467V36.225C1.88967 37.1802 2.12457 37.9761 2.59529 38.6145C3.06601 39.2529 3.69609 39.5716 4.4883 39.5716C5.27498 39.5716 5.88479 39.3597 6.3159 38.9351C6.74701 38.5104 6.96349 37.9236 6.96349 37.1756H8.32499Z" fill="black"/>
<path d="M12.2446 37.2263H11.5178V40.5297H10.1001V32.743H11.5178V36.0316H12.1221L14.9068 32.743H16.5695L16.5842 32.7789L13.3528 36.4783L16.8284 40.4937L16.8136 40.5297H15.0717L12.2446 37.2263Z" fill="black"/>
<path d="M23.1591 32.743H24.5768V40.5297H23.1591V35.0026L23.1158 34.9879L19.6762 40.5297H18.2659V32.743H19.6762V38.27L19.7195 38.2848L23.1591 32.743Z" fill="black"/>
<path d="M26.9101 39.4215C27.2841 39.4215 27.5559 39.1138 27.7272 38.4966C27.8976 37.8804 28.0201 36.9389 28.0975 35.6723L28.2845 32.743H33.4514V39.4215H34.4803V43.1062H33.0627V40.5297H27.5642V43.1062H26.1465V39.4215H26.9101ZM29.5226 35.6714C29.4645 36.588 29.3872 37.3442 29.2886 37.9421C29.19 38.539 29.0417 39.0328 28.8464 39.4206H32.0346V34.0022H29.6239L29.5226 35.6714Z" fill="black"/>
<path d="M38.2938 37.2263H37.567V40.5297H36.1493V32.743H37.567V36.0316H38.1713L40.956 32.743H42.6187L42.6334 32.7789L39.4019 36.4783L42.8775 40.4937L42.8628 40.5297H41.1209L38.2938 37.2263Z" fill="black"/>
<path d="M48.8542 40.5296C48.8063 40.2947 48.7685 40.0875 48.7427 39.9069C48.7169 39.7264 48.7004 39.5458 48.6958 39.3634C48.4323 39.7374 48.0878 40.0506 47.6631 40.303C47.2385 40.5554 46.7816 40.6807 46.2924 40.6807C45.4818 40.6807 44.8637 40.4735 44.439 40.058C44.0144 39.6435 43.8025 39.0714 43.8025 38.3419C43.8025 37.5985 44.1037 37.0172 44.7052 36.5962C45.3068 36.1762 46.1238 35.9662 47.1556 35.9662H48.6958V35.1961C48.6958 34.7401 48.5567 34.379 48.2785 34.1127C48.0003 33.8465 47.6069 33.713 47.0985 33.713C46.6379 33.713 46.2666 33.8281 45.9829 34.0584C45.6992 34.2887 45.5582 34.565 45.5582 34.8856L44.2124 34.9004L44.1977 34.8571C44.1645 34.2915 44.4289 33.7728 44.9926 33.3021C45.5564 32.8323 46.2841 32.5965 47.1767 32.5965C48.0592 32.5965 48.7695 32.8213 49.3074 33.269C49.8445 33.7176 50.1135 34.3642 50.1135 35.208V38.9572C50.1135 39.2354 50.1282 39.5044 50.1567 39.7632C50.1853 40.0221 50.2387 40.2772 50.3152 40.526H48.8542V40.5296ZM46.5015 39.4933C47.0155 39.4933 47.478 39.3616 47.8906 39.0972C48.3033 38.8338 48.5714 38.5316 48.6967 38.1908V36.9242H47.1058C46.5347 36.9242 46.0778 37.0679 45.7351 37.3562C45.3924 37.6445 45.2202 37.9826 45.2202 38.3713C45.2202 38.7168 45.3279 38.9904 45.5444 39.1921C45.7609 39.3938 46.0796 39.4933 46.5015 39.4933Z" fill="black"/>
<path d="M62.1465 32.743V40.5297H60.7288V33.8659H58.0952V36.0684C58.0952 37.604 57.8907 38.7315 57.4835 39.451C57.0764 40.1704 56.38 40.5306 55.3962 40.5306H54.9927L55.0212 39.3211L55.316 39.3137C55.8199 39.3137 56.1718 39.0678 56.3708 38.5759C56.5697 38.0839 56.6692 37.2484 56.6692 36.0675V32.743H62.1465Z" fill="black"/>
<path d="M65.686 35.7073H67.6223C68.5435 35.7073 69.2592 35.9284 69.7705 36.3696C70.2817 36.8109 70.5369 37.3848 70.5369 38.0895C70.5369 38.7997 70.279 39.3837 69.7631 39.8416C69.2463 40.3003 68.5334 40.5287 67.6223 40.5287H64.2683V32.7421H65.686V35.7073ZM65.686 36.8164V39.4215H67.6223C68.1308 39.4215 68.5057 39.299 68.7489 39.0549C68.9912 38.8098 69.1128 38.5059 69.1128 38.1411C69.1128 37.7864 68.9903 37.4769 68.7461 37.2125C68.5011 36.9491 68.1271 36.8164 67.6232 36.8164H65.686Z" fill="black"/>
<path d="M77.12 33.865H73.5864V40.5287H72.1687V32.7421H77.12V33.865Z" fill="black"/>
<path d="M77.9841 36.564C77.9841 35.4125 78.2954 34.4637 78.92 33.7176C79.5436 32.9714 80.3902 32.5983 81.4606 32.5983C82.5402 32.5983 83.3932 32.9705 84.0187 33.7139C84.6451 34.4582 84.9583 35.4079 84.9583 36.564V36.7224C84.9583 37.884 84.646 38.8338 84.0224 39.5725C83.3978 40.3113 82.5485 40.6807 81.4744 40.6807C80.3994 40.6807 79.5491 40.3104 78.9227 39.5688C78.2963 38.8273 77.9832 37.8794 77.9832 36.7224L77.9841 36.564ZM79.4018 36.7224C79.4018 37.5478 79.5749 38.2295 79.9231 38.7665C80.2704 39.3036 80.7872 39.5725 81.4744 39.5725C82.1505 39.5725 82.6636 39.3036 83.0146 38.7665C83.3646 38.2295 83.5397 37.5478 83.5397 36.7224V36.564C83.5397 35.7487 83.3637 35.0698 83.0109 34.5273C82.6581 33.9856 82.1413 33.7139 81.4597 33.7139C80.7835 33.7139 80.2704 33.9847 79.9231 34.5273C79.5749 35.0698 79.4018 35.7487 79.4018 36.564V36.7224Z" fill="black"/>
<path d="M92.539 33.8438H89.9698V40.5297H88.5521V33.8438H86.0189V32.743H92.539V33.8438Z" fill="black"/>
<path d="M100.419 40.5297H99.0011V37.219H95.5319V40.5297H94.1143V32.743H95.5319V36.1108H99.0011V32.743H100.419V40.5297Z" fill="black"/>
<path d="M104.136 35.7073H106.072C106.994 35.7073 107.709 35.9284 108.221 36.3696C108.732 36.8109 108.987 37.3848 108.987 38.0895C108.987 38.7997 108.729 39.3837 108.213 39.8416C107.697 40.3003 106.984 40.5287 106.072 40.5287H102.719V32.7421H104.136V35.7073ZM104.136 36.8164V39.4215H106.072C106.581 39.4215 106.956 39.299 107.199 39.0549C107.441 38.8098 107.563 38.5059 107.563 38.1411C107.563 37.7864 107.44 37.4769 107.196 37.2125C106.951 36.9491 106.577 36.8164 106.073 36.8164H104.136ZM111.779 40.5297H110.361V32.743H111.779V40.5297Z" fill="black"/>
<path d="M118.518 38.6726H118.561L121.109 32.7421H122.879V40.5287H121.462V35.1242L121.418 35.1095L119.029 40.5287H118.05L115.617 34.987L115.574 35.0017V40.5287H114.156V32.7421H115.984L118.518 38.6726Z" fill="black"/>
<path d="M2.86983 53.8074H2.14302V57.1108H0.725342V49.3241H2.14302V52.6127H2.74732L5.53202 49.3241H7.19474L7.20948 49.36L3.97801 53.0595L7.45359 57.0749L7.43885 57.1108H5.69691L2.86983 53.8074Z" fill="black"/>
<path d="M13.4303 57.1108C13.3824 56.8759 13.3446 56.6686 13.3188 56.488C13.293 56.3075 13.2764 56.1269 13.2718 55.9446C13.0084 56.3186 12.6638 56.6317 12.2392 56.8842C11.8145 57.1366 11.3576 57.2618 10.8685 57.2618C10.0578 57.2618 9.43973 57.0546 9.01507 56.6391C8.5904 56.2246 8.37854 55.6525 8.37854 54.923C8.37854 54.1796 8.67976 53.5983 9.28129 53.1773C9.88281 52.7573 10.6999 52.5473 11.7316 52.5473H13.2718V51.7772C13.2718 51.3212 13.1327 50.9601 12.8545 50.6939C12.5763 50.4276 12.183 50.2941 11.6745 50.2941C11.2139 50.2941 10.8427 50.4092 10.559 50.6395C10.2752 50.8698 10.1343 51.1462 10.1343 51.4667L8.78846 51.4815L8.77372 51.4382C8.74056 50.8726 9.00494 50.354 9.5687 49.8832C10.1325 49.4134 10.8602 49.1776 11.7528 49.1776C12.6353 49.1776 13.3455 49.4024 13.8835 49.8501C14.4205 50.2987 14.6895 50.9453 14.6895 51.7891V55.5383C14.6895 55.8165 14.7042 56.0855 14.7328 56.3443C14.7613 56.6032 14.8148 56.8584 14.8912 57.1071H13.4303V57.1108ZM11.0767 56.0744C11.5907 56.0744 12.0531 55.9427 12.4658 55.6783C12.8785 55.4149 13.1465 55.1127 13.2718 54.7719V53.5053H11.6809C11.1098 53.5053 10.6529 53.649 10.3102 53.9373C9.96757 54.2256 9.7953 54.5637 9.7953 54.9524C9.7953 55.2979 9.90308 55.5715 10.1196 55.7732C10.336 55.975 10.6548 56.0744 11.0767 56.0744Z" fill="black"/>
<path d="M22.6665 50.4249H20.0974V57.1108H18.6787V50.4249H16.1455V49.3241H22.6656V50.4249H22.6665Z" fill="black"/>
<path d="M27.2805 57.2618C26.1622 57.2618 25.2907 56.9044 24.6643 56.1896C24.0379 55.4747 23.7247 54.5342 23.7247 53.368V53.052C23.7247 51.9347 24.0471 51.0098 24.6929 50.2775C25.3377 49.5461 26.1262 49.1804 27.0566 49.1804C28.0975 49.1804 28.8787 49.5046 29.3992 50.1522C29.9187 50.7998 30.1803 51.6611 30.1803 52.7361V53.485H25.2005L25.1793 53.5209C25.1793 54.303 25.3524 54.9377 25.6979 55.4241C26.0433 55.9114 26.5702 56.1546 27.2814 56.1546C27.7613 56.1546 28.1823 56.0864 28.5443 55.9491C28.9063 55.8128 29.2168 55.624 29.4765 55.3845L30.0311 56.3056C29.752 56.5746 29.3853 56.8012 28.9303 56.9855C28.4725 57.1688 27.9234 57.2618 27.2805 57.2618ZM27.0575 50.295C26.5629 50.295 26.1548 50.4857 25.8305 50.867C25.5063 51.2484 25.3092 51.7366 25.2364 52.3317L25.2511 52.3676H28.7636V52.2525C28.7636 51.6869 28.6245 51.2189 28.3463 50.8495C28.0671 50.4801 27.6379 50.295 27.0575 50.295Z" fill="black"/>
<path d="M36.9212 50.4461H33.3875V57.1099H31.9698V49.3232H36.9212V50.4461Z" fill="black"/>
<path d="M37.7851 53.1452C37.7851 51.9937 38.0965 51.0449 38.721 50.2987C39.3446 49.5526 40.1912 49.1795 41.2616 49.1795C42.3412 49.1795 43.1942 49.5517 43.8197 50.295C44.4461 51.0394 44.7593 51.9891 44.7593 53.1452V53.3036C44.7593 54.4652 44.447 55.4149 43.8234 56.1537C43.1988 56.8925 42.3495 57.2619 41.2754 57.2619C40.2004 57.2619 39.3502 56.8916 38.7238 56.15C38.0974 55.4085 37.7842 54.4606 37.7842 53.3036L37.7851 53.1452ZM39.2028 53.3036C39.2028 54.129 39.376 54.8106 39.7242 55.3477C40.0714 55.8847 40.5882 56.1537 41.2754 56.1537C41.9516 56.1537 42.4647 55.8847 42.8156 55.3477C43.1657 54.8106 43.3407 54.129 43.3407 53.3036V53.1452C43.3407 52.3299 43.1647 51.651 42.8119 51.1084C42.4591 50.5668 41.9423 50.295 41.2607 50.295C40.5845 50.295 40.0714 50.5659 39.7242 51.1084C39.376 51.651 39.2028 52.3299 39.2028 53.1452V53.3036Z" fill="black"/>
<path d="M53.233 53.5126C53.233 54.6355 52.964 55.5411 52.427 56.2292C51.8899 56.9182 51.1484 57.2618 50.2033 57.2618C49.7233 57.2618 49.3024 57.1817 48.9403 57.0205C48.5783 56.8593 48.2697 56.6188 48.0155 56.2973V60.1046H46.5978V49.3241H47.6848L47.9077 50.3318C48.1619 49.9578 48.4788 49.6723 48.8574 49.4751C49.236 49.2789 49.6782 49.1804 50.1821 49.1804C51.1465 49.1804 51.8955 49.5636 52.4307 50.3281C52.9659 51.0936 53.233 52.1051 53.233 53.3616V53.5126ZM51.8153 53.3606C51.8153 52.4782 51.6421 51.7523 51.2939 51.1839C50.9457 50.6155 50.4336 50.3309 49.7574 50.3309C49.3503 50.3309 49.0021 50.4239 48.7137 50.6082C48.4254 50.7933 48.1933 51.0467 48.0155 51.3672V55.1311C48.1923 55.4526 48.4254 55.7032 48.7137 55.8828C49.0021 56.0625 49.3539 56.1527 49.7712 56.1527C50.4428 56.1527 50.9513 55.9068 51.2967 55.4149C51.6421 54.923 51.8153 54.2883 51.8153 53.5117V53.3606Z" fill="black"/>
<path d="M59.9961 49.3241H61.4137V57.1108H59.9961V51.5837L59.9528 51.569L56.5131 57.1108H55.1028V49.3241H56.5131V54.8511L56.5564 54.8659L59.9961 49.3241Z" fill="black"/>
<path d="M69.7176 49.3241V57.1108H68.2999V54.0884H66.3783L64.536 57.1108H63.0105L64.9827 53.8793C64.489 53.7024 64.1085 53.4215 63.8423 53.0373C63.5761 52.6532 63.4425 52.2101 63.4425 51.7063C63.4425 51.0062 63.7078 50.4341 64.2375 49.9901C64.7672 49.547 65.4977 49.3241 66.429 49.3241H69.7176ZM64.8667 51.7201C64.8667 52.0655 64.9846 52.3603 65.2195 52.6053C65.4544 52.8504 65.8072 52.9719 66.277 52.9719H68.299V50.424H66.428C65.914 50.424 65.5262 50.5529 65.2618 50.809C64.9993 51.067 64.8667 51.37 64.8667 51.7201Z" fill="black"/>
<path d="M76.341 55.2537H76.3843L78.9323 49.3232H80.7028V57.1099H79.2851V51.7053L79.2418 51.6906L76.8523 57.1099H75.8731L73.4402 51.5681L73.3969 51.5828V57.1099H71.9792V49.3232H73.8069L76.341 55.2537Z" fill="black"/>
<path d="M91.5188 50.4461H87.9852V57.1099H86.5675V49.3232H91.5188V50.4461Z" fill="black"/>
<path d="M99.5368 53.5126C99.5368 54.6355 99.2678 55.5411 98.7308 56.2292C98.1928 56.9182 97.4513 57.2618 96.5071 57.2618C96.0272 57.2618 95.6053 57.1817 95.2442 57.0205C94.8812 56.8602 94.5726 56.6188 94.3193 56.2973V60.1046H92.9016V49.3241H93.9886L94.2115 50.3318C94.4648 49.9578 94.7817 49.6723 95.1613 49.4751C95.5399 49.2789 95.982 49.1804 96.4859 49.1804C97.4504 49.1804 98.1993 49.5636 98.7345 50.3281C99.2688 51.0936 99.5368 52.1051 99.5368 53.3616V53.5126ZM98.1191 53.3606C98.1191 52.4782 97.945 51.7523 97.5978 51.1839C97.2496 50.6155 96.7374 50.3309 96.0612 50.3309C95.6532 50.3309 95.3059 50.4239 95.0175 50.6082C94.7292 50.7933 94.4971 51.0467 94.3193 51.3672V55.1311C94.4962 55.4526 94.7292 55.7032 95.0175 55.8828C95.3059 56.0625 95.6578 56.1527 96.0751 56.1527C96.7466 56.1527 97.2551 55.9068 97.6005 55.4149C97.946 54.923 98.1191 54.2883 98.1191 53.5117V53.3606Z" fill="black"/>
<path d="M106.087 57.1108C106.038 56.8759 106.001 56.6686 105.975 56.488C105.948 56.3084 105.933 56.1269 105.928 55.9446C105.664 56.3186 105.32 56.6317 104.895 56.8842C104.471 57.1366 104.014 57.2618 103.525 57.2618C102.713 57.2618 102.096 57.0546 101.671 56.6391C101.247 56.2246 101.035 55.6525 101.035 54.923C101.035 54.1796 101.335 53.5983 101.938 53.1773C102.539 52.7573 103.356 52.5473 104.388 52.5473H105.928V51.7772C105.928 51.3212 105.789 50.9601 105.511 50.6939C105.232 50.4276 104.839 50.2941 104.331 50.2941C103.87 50.2941 103.498 50.4092 103.215 50.6395C102.931 50.8698 102.791 51.1462 102.791 51.4667L101.445 51.4815L101.43 51.4382C101.396 50.8726 101.661 50.354 102.225 49.8832C102.788 49.4134 103.516 49.1776 104.409 49.1776C105.292 49.1776 106.002 49.4024 106.54 49.8501C107.077 50.2987 107.346 50.9453 107.346 51.7891V55.5383C107.346 55.8165 107.36 56.0855 107.389 56.3443C107.418 56.6032 107.47 56.8584 107.547 57.1071H106.087V57.1108ZM103.733 56.0744C104.246 56.0744 104.709 55.9427 105.122 55.6783C105.534 55.4149 105.803 55.1127 105.928 54.7719V53.5053H104.337C103.766 53.5053 103.309 53.649 102.966 53.9373C102.623 54.2256 102.452 54.5637 102.452 54.9524C102.452 55.2979 102.559 55.5715 102.776 55.7732C102.992 55.975 103.31 56.0744 103.733 56.0744Z" fill="black"/>
<path d="M115.09 53.7356H114.673V57.1108H113.255V53.7356H112.838L110.643 57.1108H108.858L111.765 52.9941L109.102 49.3241H110.814L112.872 52.5335H113.253V49.3241H114.671V52.5335H115.06L117.125 49.3241H118.831L116.168 52.9941L119.075 57.1108H117.29L115.09 53.7356Z" fill="black"/>
<path d="M120.994 56.0026C121.368 56.0026 121.64 55.6949 121.811 55.0778C121.981 54.4615 122.105 53.52 122.181 52.2534L122.368 49.3241H127.535V56.0026H128.564V59.6873H127.146V57.1108H121.648V59.6873H120.23V56.0026H120.994ZM123.606 52.2525C123.548 53.1691 123.471 53.9254 123.372 54.5232C123.274 55.121 123.126 55.6139 122.93 56.0017H126.118V50.5833H123.708L123.606 52.2525Z" fill="black"/>
<path d="M134.996 57.1108C134.948 56.8759 134.91 56.6686 134.884 56.488C134.859 56.3075 134.842 56.1269 134.837 55.9446C134.574 56.3186 134.23 56.6317 133.805 56.8842C133.38 57.1366 132.923 57.2618 132.434 57.2618C131.624 57.2618 131.005 57.0546 130.581 56.6391C130.156 56.2246 129.944 55.6525 129.944 54.923C129.944 54.1796 130.245 53.5983 130.847 53.1773C131.449 52.7573 132.266 52.5473 133.297 52.5473H134.837V51.7772C134.837 51.3212 134.698 50.9601 134.42 50.6939C134.142 50.4276 133.749 50.2941 133.24 50.2941C132.78 50.2941 132.408 50.4092 132.125 50.6395C131.841 50.8698 131.7 51.1462 131.7 51.4667L130.354 51.4815L130.339 51.4382C130.306 50.8726 130.571 50.354 131.134 49.8832C131.698 49.4134 132.426 49.1776 133.318 49.1776C134.201 49.1776 134.911 49.4024 135.449 49.8501C135.986 50.2987 136.255 50.9453 136.255 51.7891V55.5383C136.255 55.8165 136.27 56.0855 136.298 56.3443C136.327 56.6032 136.38 56.8584 136.457 57.1071H134.996V57.1108ZM132.642 56.0744C133.156 56.0744 133.619 55.9427 134.031 55.6783C134.444 55.4149 134.712 55.1127 134.837 54.7719V53.5053H133.247C132.676 53.5053 132.219 53.649 131.876 53.9373C131.533 54.2256 131.361 54.5637 131.361 54.9524C131.361 55.2979 131.469 55.5715 131.685 55.7732C131.902 55.975 132.22 56.0744 132.642 56.0744Z" fill="black"/>
<path d="M144.723 57.1108H143.305V53.8001H139.836V57.1108H138.419V49.3241H139.836V52.6919H143.305V49.3241H144.723V57.1108Z" fill="black"/>
</svg>
