<svg width="44" height="45" viewBox="0 0 44 45" fill="none" xmlns="http://www.w3.org/2000/svg">
<path d="M21.8523 44.3446C33.9097 44.3446 43.6842 34.5702 43.6842 22.5128C43.6842 10.4554 33.9097 0.680969 21.8523 0.680969C9.79495 0.680969 0.0205078 10.4554 0.0205078 22.5128C0.0205078 34.5702 9.79495 44.3446 21.8523 44.3446Z" fill="#EFFAEC"/>
<path d="M17.7085 22.2677C17.4405 22.2677 17.2231 22.4851 17.2231 22.7532V24.3551C17.2231 25.6935 16.1343 26.7824 14.7958 26.7824C13.4573 26.7824 12.3685 25.6935 12.3685 24.3551V22.7532C12.3685 22.4851 12.1511 22.2677 11.883 22.2677C11.615 22.2677 11.3976 22.4851 11.3976 22.7532V24.3551C11.3976 26.2287 12.9221 27.7533 14.7958 27.7533C16.6695 27.7533 18.194 26.2287 18.194 24.3551V22.7532C18.194 22.4851 17.9766 22.2677 17.7085 22.2677Z" fill="#00B956"/>
<path d="M14.7968 28.014C12.7795 28.014 11.1379 26.3725 11.1379 24.3551V22.7532C11.1379 22.3414 11.4732 22.0061 11.885 22.0061C12.2968 22.0061 12.6321 22.3414 12.6321 22.7532V24.3551C12.6321 25.5489 13.6039 26.5208 14.7978 26.5208C15.9916 26.5208 16.9634 25.5489 16.9634 24.3551V22.7532C16.9634 22.3414 17.2988 22.0061 17.7105 22.0061C18.1223 22.0061 18.4576 22.3414 18.4576 22.7532V24.3551C18.4557 26.3715 16.8142 28.014 14.7968 28.014ZM11.8841 22.5293C11.7607 22.5293 11.6602 22.6297 11.6602 22.7532V24.3551C11.6602 26.0841 13.0669 27.4917 14.7968 27.4917C16.5268 27.4917 17.9334 26.0851 17.9334 24.3551V22.7532C17.9334 22.6297 17.833 22.5293 17.7096 22.5293C17.5862 22.5293 17.4857 22.6297 17.4857 22.7532V24.3551C17.4857 25.8373 16.279 27.0431 14.7978 27.0431C13.3165 27.0431 12.1098 25.8363 12.1098 24.3551V22.7532C12.1079 22.6288 12.0075 22.5293 11.8841 22.5293Z" fill="#00B956"/>
<path d="M33.2425 13.5064H30.1345C30.082 10.3929 27.534 7.87622 24.4084 7.87622C21.2829 7.87622 18.734 10.3929 18.6824 13.5064H15.5744C15.3063 13.5064 15.0889 13.7238 15.0889 13.9919V20.1085H9.36107C9.09301 20.1085 8.87561 20.3259 8.87561 20.5939V32.2431C8.87561 32.5112 9.09301 32.7286 9.36107 32.7286H33.2425C33.5106 32.7286 33.728 32.5112 33.728 32.2431V13.9919C33.728 13.7238 33.5106 13.5064 33.2425 13.5064ZM19.6515 13.6032C19.6515 10.9806 21.7859 8.84622 24.4084 8.84622C27.031 8.84622 29.1654 10.9797 29.1654 13.6032V17.0493C29.1654 17.3173 28.948 17.5347 28.6799 17.5347C28.4119 17.5347 28.1945 17.3173 28.1945 17.0493V13.6032C28.1945 11.5158 26.4958 9.81713 24.4084 9.81713C22.3211 9.81713 20.6224 11.5158 20.6224 13.6032V17.0493C20.6224 17.3173 20.405 17.5347 20.137 17.5347C19.8689 17.5347 19.6515 17.3173 19.6515 17.0493V13.6032ZM27.2217 13.5064H21.5961C21.6477 11.9994 22.8894 10.7881 24.4094 10.7881C25.9293 10.7881 27.1701 11.9985 27.2217 13.5064ZM32.757 31.7567H20.7191V28.8606C20.7191 28.5925 20.5017 28.3751 20.2337 28.3751C19.9656 28.3751 19.7482 28.5925 19.7482 28.8606V31.7567H9.84653V21.0785H19.7482V23.9258C19.7482 24.1939 19.9656 24.4113 20.2337 24.4113C20.5017 24.4113 20.7191 24.1939 20.7191 23.9258V20.593C20.7191 20.325 20.5017 20.1076 20.2337 20.1076H16.0589V14.4764H18.6797V17.0493C18.6797 17.8525 19.3328 18.5056 20.136 18.5056C20.9393 18.5056 21.5924 17.8525 21.5924 17.0493V14.4764H27.2226V17.0493C27.2226 17.8525 27.8757 18.5056 28.679 18.5056C29.4823 18.5056 30.1354 17.8525 30.1354 17.0493V14.4764H32.7561V31.7567H32.757Z" fill="#00B956"/>
<path d="M33.2424 32.9893H9.36096C8.9492 32.9893 8.61389 32.654 8.61389 32.2422V20.593C8.61389 20.1813 8.9492 19.846 9.36096 19.846H14.8272V13.9919C14.8272 13.5801 15.1625 13.2448 15.5743 13.2448H18.4308C18.6188 10.1175 21.2478 7.61462 24.4083 7.61462C27.5689 7.61462 30.1988 10.1175 30.3868 13.2448H33.2433C33.6551 13.2448 33.9904 13.5801 33.9904 13.9919V32.2431C33.9895 32.654 33.6542 32.9893 33.2424 32.9893ZM9.36096 20.3692C9.23753 20.3692 9.1362 20.4696 9.1362 20.593V32.2422C9.1362 32.3656 9.23661 32.4661 9.36096 32.4661H33.2424C33.3658 32.4661 33.4662 32.3656 33.4662 32.2422V13.9919C33.4662 13.8685 33.3658 13.7681 33.2424 13.7681H29.8783L29.8746 13.5111C29.8248 10.5476 27.3727 8.13785 24.4083 8.13785C21.4449 8.13785 18.9928 10.5486 18.943 13.5111L18.9393 13.7681H15.5743C15.4508 13.7681 15.3504 13.8685 15.3504 13.9919V20.3692H9.36096ZM33.0186 32.0184H20.4583V28.8615C20.4583 28.7381 20.3579 28.6377 20.2345 28.6377C20.1111 28.6377 20.0107 28.7381 20.0107 28.8615V32.0184H9.58573V20.8169H20.0107V23.9259C20.0107 24.0493 20.1111 24.1497 20.2345 24.1497C20.3579 24.1497 20.4583 24.0493 20.4583 23.9259V20.593C20.4583 20.4696 20.3579 20.3692 20.2345 20.3692H15.7991V14.2158H18.943V17.0502C18.943 17.7088 19.4791 18.245 20.1378 18.245C20.7964 18.245 21.3325 17.7088 21.3325 17.0502V14.2158H27.486V17.0502C27.486 17.7088 28.0221 18.245 28.6807 18.245C29.3394 18.245 29.8755 17.7088 29.8755 17.0502V14.2158H33.0195V32.0184H33.0186ZM20.9807 31.4951H32.4953V14.7381H30.3969V17.0493C30.3969 17.9963 29.6268 18.7673 28.6798 18.7673C27.7329 18.7673 26.9618 17.9972 26.9618 17.0493V14.7381H21.8539V17.0493C21.8539 17.9963 21.0838 18.7673 20.1369 18.7673C19.1899 18.7673 18.4189 17.9972 18.4189 17.0493V14.7381H16.3204V19.846H20.2336C20.6453 19.846 20.9807 20.1813 20.9807 20.593V23.9259C20.9807 24.3376 20.6453 24.6729 20.2336 24.6729C19.8218 24.6729 19.4865 24.3376 19.4865 23.9259V21.3392H10.108V31.4951H19.4874V28.8606C19.4874 28.4488 19.8227 28.1135 20.2345 28.1135C20.6463 28.1135 20.9816 28.4488 20.9816 28.8606L20.9807 31.4951ZM27.4915 13.7671H21.3252L21.3344 13.4972C21.3915 11.8318 22.741 10.5265 24.4074 10.5265C26.0738 10.5265 27.4243 11.8318 27.4814 13.4972L27.4915 13.7671ZM21.8797 13.2448H26.937C26.7638 11.9939 25.7007 11.0497 24.4083 11.0497C23.1159 11.0497 22.0529 11.9939 21.8797 13.2448Z" fill="#00B956"/>
<path d="M20.233 25.9322C20.105 25.9322 19.9797 25.9838 19.8894 26.0741C19.7991 26.1643 19.7476 26.2896 19.7476 26.4176C19.7476 26.5457 19.7991 26.671 19.8894 26.7612C19.9797 26.8515 20.105 26.9031 20.233 26.9031C20.3611 26.9031 20.4863 26.8515 20.5757 26.7612C20.666 26.671 20.7176 26.5457 20.7176 26.4176C20.7176 26.2896 20.666 26.1643 20.5757 26.0741C20.4854 25.9847 20.3601 25.9322 20.233 25.9322Z" fill="#00B956"/>
<path d="M20.2338 27.1647C20.0376 27.1647 19.8451 27.0846 19.706 26.9464C19.5678 26.8073 19.4877 26.6148 19.4877 26.4186C19.4877 26.2224 19.5678 26.0299 19.706 25.8908C19.9814 25.6135 20.4835 25.6135 20.7617 25.8908C20.9008 26.0308 20.98 26.2233 20.98 26.4186C20.98 26.6139 20.9008 26.8064 20.7617 26.9455C20.6216 27.0846 20.4291 27.1647 20.2338 27.1647ZM20.2338 26.1938C20.1758 26.1938 20.1168 26.2178 20.0763 26.2583C20.0348 26.2998 20.01 26.3596 20.01 26.4177C20.01 26.4757 20.0339 26.5347 20.0754 26.5761C20.1583 26.6581 20.3094 26.659 20.3932 26.5752C20.4337 26.5347 20.4577 26.4757 20.4577 26.4177C20.4577 26.3596 20.4337 26.3007 20.3913 26.2583C20.3508 26.2178 20.2919 26.1938 20.2338 26.1938Z" fill="#00B956"/>
</svg>
