<svg width="212" height="94" viewBox="0 0 212 94" fill="none" xmlns="http://www.w3.org/2000/svg">
<path d="M202.958 22.515H191.833C193.553 20.2287 194.574 17.3887 194.574 14.3138C194.574 6.77679 188.442 0.644531 180.905 0.644531C176.364 0.644531 173.017 2.27132 170.369 5.76349C168.154 8.68546 166.535 12.7653 164.502 17.9193C162.47 12.7644 160.851 8.68546 158.636 5.76349C155.987 2.27132 152.64 0.644531 148.1 0.644531C140.563 0.644531 134.431 6.77679 134.431 14.3138C134.431 17.3887 135.452 20.2287 137.172 22.515H126.047C121.525 22.515 117.846 26.1942 117.846 30.7163V36.1834C117.846 39.7474 120.131 42.7864 123.313 43.9148V85.7564C123.313 90.2784 126.992 93.9576 131.514 93.9576H197.49C202.012 93.9576 205.691 90.2784 205.691 85.7564V43.9158C208.873 42.7873 211.158 39.7484 211.158 36.1843V30.7172C211.159 26.1942 207.48 22.515 202.958 22.515ZM169.52 20.0988C173.708 9.47398 175.3 6.11262 180.905 6.11262C185.427 6.11262 189.106 9.79179 189.106 14.3138C189.106 18.8359 185.427 22.515 180.905 22.515H168.564C168.899 21.674 169.219 20.8643 169.52 20.0988ZM148.099 6.11262C153.704 6.11262 155.295 9.47398 159.484 20.0988C159.786 20.8643 160.105 21.674 160.44 22.515H148.099C143.577 22.515 139.898 18.8359 139.898 14.3138C139.898 9.79179 143.577 6.11262 148.099 6.11262ZM153.567 88.4914H131.514C130.007 88.4914 128.78 87.2653 128.78 85.7573V44.3856H153.566L153.567 88.4914ZM153.567 38.9184H126.047C124.54 38.9184 123.313 37.6923 123.313 36.1843V30.7172C123.313 29.2101 124.539 27.9831 126.047 27.9831H153.567V38.9184ZM169.97 88.4914H159.034V27.9831C159.607 27.9831 166.828 27.9831 169.97 27.9831V88.4914ZM200.224 85.7573C200.224 87.2644 198.998 88.4914 197.49 88.4914H175.437V44.3856H200.223V85.7573H200.224ZM205.692 36.1843C205.692 37.6914 204.466 38.9184 202.958 38.9184H175.438V27.9831H202.958C204.465 27.9831 205.692 29.2092 205.692 30.7172V36.1843Z" fill="#00B956" fill-opacity="0.18"/>
<path d="M8.56937 42.1756L8.58411 42.2189C8.60346 43.2028 8.25802 44.0254 7.54779 44.6877C6.83757 45.35 5.89981 45.6807 4.7336 45.6807C3.54897 45.6807 2.58266 45.2607 1.83651 44.4215C1.09036 43.5823 0.717285 42.5174 0.717285 41.2259V39.3615C0.717285 38.0709 1.09036 37.0042 1.83651 36.1622C2.58266 35.3203 3.54805 34.8993 4.7336 34.8993C5.91916 34.8993 6.86152 35.2153 7.56161 35.8453C8.26262 36.4763 8.60254 37.3128 8.58319 38.3537L8.56845 38.397H7.20787C7.20787 37.6628 6.99232 37.0825 6.56029 36.655C6.12826 36.2285 5.51937 36.0148 4.73268 36.0148C3.9414 36.0148 3.31039 36.3345 2.83967 36.9719C2.36895 37.6103 2.13405 38.4016 2.13405 39.3467V41.225C2.13405 42.1802 2.36895 42.9761 2.83967 43.6145C3.31039 44.2529 3.94047 44.5716 4.73268 44.5716C5.51937 44.5716 6.12918 44.3597 6.56029 43.9351C6.9914 43.5104 7.20787 42.9236 7.20787 42.1756H8.56937Z" fill="black"/>
<path d="M12.4892 42.2263H11.7624V45.5297H10.3447V37.743H11.7624V41.0316H12.3667L15.1514 37.743H16.8141L16.8289 37.7789L13.5974 41.4783L17.073 45.4937L17.0583 45.5297H15.3163L12.4892 42.2263Z" fill="black"/>
<path d="M23.4038 37.743H24.8215V45.5297H23.4038V40.0026L23.3605 39.9879L19.9208 45.5297H18.5105V37.743H19.9208V43.27L19.9641 43.2848L23.4038 37.743Z" fill="black"/>
<path d="M27.1548 44.4215C27.5288 44.4215 27.8005 44.1138 27.9719 43.4966C28.1423 42.8804 28.2648 41.9389 28.3422 40.6723L28.5292 37.743H33.696V44.4215H34.725V48.1062H33.3073V45.5297H27.8088V48.1062H26.3911V44.4215H27.1548ZM29.7672 40.6714C29.7092 41.588 29.6318 42.3442 29.5332 42.9421C29.4347 43.539 29.2864 44.0328 29.0911 44.4206H32.2793V39.0022H29.8685L29.7672 40.6714Z" fill="black"/>
<path d="M38.5384 42.2263H37.8116V45.5297H36.3939V37.743H37.8116V41.0316H38.4159L41.2006 37.743H42.8633L42.8781 37.7789L39.6466 41.4783L43.1222 45.4937L43.1074 45.5297H41.3655L38.5384 42.2263Z" fill="black"/>
<path d="M49.0988 45.5296C49.0509 45.2947 49.0132 45.0875 48.9874 44.9069C48.9616 44.7264 48.945 44.5458 48.9404 44.3634C48.6769 44.7374 48.3324 45.0506 47.9078 45.303C47.4831 45.5554 47.0262 45.6807 46.5371 45.6807C45.7264 45.6807 45.1083 45.4735 44.6836 45.058C44.259 44.6435 44.0471 44.0714 44.0471 43.3419C44.0471 42.5985 44.3483 42.0172 44.9499 41.5962C45.5514 41.1762 46.3685 40.9662 47.4002 40.9662H48.9404V40.1961C48.9404 39.7401 48.8013 39.379 48.5231 39.1127C48.2449 38.8465 47.8516 38.713 47.3431 38.713C46.8825 38.713 46.5112 38.8281 46.2275 39.0584C45.9438 39.2887 45.8029 39.565 45.8029 39.8856L44.457 39.9004L44.4423 39.8571C44.4091 39.2915 44.6735 38.7728 45.2373 38.3021C45.801 37.8323 46.5288 37.5965 47.4214 37.5965C48.3039 37.5965 49.0141 37.8213 49.5521 38.269C50.0891 38.7176 50.3581 39.3642 50.3581 40.208V43.9572C50.3581 44.2354 50.3728 44.5044 50.4014 44.7632C50.4299 45.0221 50.4834 45.2772 50.5598 45.526H49.0988V45.5296ZM46.7462 44.4933C47.2602 44.4933 47.7226 44.3616 48.1353 44.0972C48.548 43.8338 48.816 43.5316 48.9413 43.1908V41.9242H47.3504C46.7793 41.9242 46.3224 42.0679 45.9797 42.3562C45.6371 42.6445 45.4648 42.9826 45.4648 43.3713C45.4648 43.7168 45.5726 43.9904 45.7891 44.1921C46.0055 44.3938 46.3243 44.4933 46.7462 44.4933Z" fill="black"/>
<path d="M62.3828 45.5297H60.9651V42.219H57.4959V45.5297H56.0782V37.743H57.4959V41.1108H60.9651V37.743H62.3828V45.5297Z" fill="black"/>
<path d="M69.283 45.5296C69.2351 45.2947 69.1974 45.0875 69.1716 44.9069C69.1458 44.7264 69.1292 44.5458 69.1246 44.3634C68.8611 44.7374 68.5166 45.0506 68.092 45.303C67.6673 45.5554 67.2104 45.6807 66.7212 45.6807C65.9106 45.6807 65.2925 45.4735 64.8678 45.058C64.4432 44.6435 64.2313 44.0714 64.2313 43.3419C64.2313 42.5985 64.5325 42.0172 65.1341 41.5962C65.7356 41.1762 66.5527 40.9662 67.5844 40.9662H69.1246V40.1961C69.1246 39.7401 68.9855 39.379 68.7073 39.1127C68.4291 38.8465 68.0358 38.713 67.5273 38.713C67.0667 38.713 66.6955 38.8281 66.4117 39.0584C66.128 39.2887 65.9871 39.565 65.9871 39.8856L64.6412 39.9004L64.6265 39.8571C64.5933 39.2915 64.8577 38.7728 65.4215 38.3021C65.9852 37.8323 66.713 37.5965 67.6056 37.5965C68.4881 37.5965 69.1983 37.8213 69.7363 38.269C70.2733 38.7176 70.5423 39.3642 70.5423 40.208V43.9572C70.5423 44.2354 70.557 44.5044 70.5856 44.7632C70.6141 45.0221 70.6676 45.2772 70.744 45.526H69.283V45.5296ZM66.9304 44.4933C67.4444 44.4933 67.9068 44.3616 68.3195 44.0972C68.7322 43.8338 69.0002 43.5316 69.1255 43.1908V41.9242H67.5347C66.9635 41.9242 66.5066 42.0679 66.1639 42.3562C65.8213 42.6445 65.649 42.9826 65.649 43.3713C65.649 43.7168 65.7568 43.9904 65.9733 44.1921C66.1897 44.3938 66.5085 44.4933 66.9304 44.4933Z" fill="black"/>
<path d="M7.2105 62.1108H5.79281V55.447H2.31722V62.1108H0.899536V54.3241H7.21142L7.2105 62.1108Z" fill="black"/>
<path d="M9.04999 58.1451C9.04999 56.9936 9.36135 56.0448 9.9859 55.2987C10.6095 54.5525 11.4561 54.1794 12.5265 54.1794C13.6061 54.1794 14.4591 54.5516 15.0846 55.295C15.711 56.0393 16.0242 56.989 16.0242 58.1451V58.3035C16.0242 59.4651 15.7119 60.4149 15.0883 61.1536C14.4637 61.8924 13.6144 62.2618 12.5403 62.2618C11.4653 62.2618 10.6151 61.8915 9.98867 61.15C9.36227 60.4084 9.04907 59.4605 9.04907 58.3035L9.04999 58.1451ZM10.4677 58.3035C10.4677 59.1289 10.6409 59.8106 10.9891 60.3476C11.3363 60.8847 11.8531 61.1536 12.5403 61.1536C13.2165 61.1536 13.7296 60.8847 14.0805 60.3476C14.4306 59.8106 14.6056 59.1289 14.6056 58.3035V58.1451C14.6056 57.3299 14.4296 56.651 14.0768 56.1084C13.724 55.5667 13.2073 55.295 12.5256 55.295C11.8494 55.295 11.3363 55.5658 10.9891 56.1084C10.6409 56.651 10.4677 57.3299 10.4677 58.1451V58.3035Z" fill="black"/>
<path d="M17.8608 62.1108V54.3241H20.9339C21.9601 54.3241 22.7569 54.5028 23.3234 54.8602C23.889 55.2176 24.1727 55.7538 24.1727 56.4686C24.1727 56.8334 24.0622 57.1585 23.842 57.4441C23.621 57.7297 23.3096 57.9471 22.9061 58.0954C23.3897 58.2151 23.7683 58.4399 24.0392 58.7678C24.31 59.0967 24.4454 59.4725 24.4454 59.8944C24.4454 60.624 24.1801 61.1758 23.6504 61.5498C23.1198 61.9238 22.3801 62.1108 21.4304 62.1108H17.8608ZM19.2785 57.6127H20.9413C21.54 57.6127 21.9932 57.5243 22.2981 57.3465C22.6021 57.1696 22.755 56.9006 22.755 56.5404C22.755 56.171 22.6012 55.8929 22.2945 55.7059C21.9868 55.5189 21.5336 55.4249 20.9339 55.4249H19.2785V57.6127ZM19.2785 58.6997V61.0173H21.4304C21.9527 61.0173 22.3488 60.9179 22.6178 60.7189C22.8858 60.5199 23.0213 60.2334 23.0213 59.8585C23.0213 59.4891 22.8868 59.2036 22.6178 59.0018C22.3488 58.8001 21.9527 58.6997 21.4304 58.6997H19.2785Z" fill="black"/>
<path d="M32.1821 55.4249H29.6129V62.1108H28.1952V55.4249H25.662V54.3241H32.1821V55.4249Z" fill="black"/>
<path d="M33.2404 58.1451C33.2404 56.9936 33.5518 56.0448 34.1763 55.2987C34.8 54.5525 35.6465 54.1794 36.7169 54.1794C37.7965 54.1794 38.6496 54.5516 39.275 55.295C39.9014 56.0393 40.2146 56.989 40.2146 58.1451V58.3035C40.2146 59.4651 39.9024 60.4149 39.2787 61.1536C38.6542 61.8924 37.8048 62.2618 36.7307 62.2618C35.6557 62.2618 34.8055 61.8915 34.1791 61.15C33.5527 60.4084 33.2395 59.4605 33.2395 58.3035L33.2404 58.1451ZM34.6581 58.3035C34.6581 59.1289 34.8313 59.8106 35.1795 60.3476C35.5268 60.8847 36.0435 61.1536 36.7307 61.1536C37.4069 61.1536 37.92 60.8847 38.271 60.3476C38.621 59.8106 38.796 59.1289 38.796 58.3035V58.1451C38.796 57.3299 38.6201 56.651 38.2673 56.1084C37.9145 55.5667 37.3977 55.295 36.716 55.295C36.0399 55.295 35.5268 55.5658 35.1795 56.1084C34.8313 56.651 34.6581 57.3299 34.6581 58.1451V58.3035Z" fill="black"/>
<path d="M48.69 58.5126C48.69 59.6355 48.421 60.5411 47.884 61.2292C47.347 61.9182 46.6054 62.2618 45.6603 62.2618C45.1804 62.2618 44.7594 62.1817 44.3974 62.0205C44.0353 61.8593 43.7267 61.6188 43.4725 61.2973V65.1046H42.0548V54.3241H43.1418L43.3647 55.3318C43.619 54.9578 43.9358 54.6723 44.3145 54.4751C44.6931 54.2789 45.1352 54.1804 45.6391 54.1804C46.6036 54.1804 47.3525 54.5636 47.8877 55.3281C48.4229 56.0936 48.69 57.1051 48.69 58.3616V58.5126ZM47.2723 58.3606C47.2723 57.4782 47.0992 56.7523 46.751 56.1839C46.4028 55.6155 45.8906 55.3309 45.2144 55.3309C44.8073 55.3309 44.4591 55.4239 44.1708 55.6082C43.8824 55.7933 43.6503 56.0467 43.4725 56.3672V60.1311C43.6494 60.4526 43.8824 60.7032 44.1708 60.8828C44.4591 61.0625 44.811 61.1527 45.2283 61.1527C45.8998 61.1527 46.4083 60.9068 46.7537 60.4149C47.0992 59.923 47.2723 59.2883 47.2723 58.5117V58.3606Z" fill="black"/>
<path d="M56.8625 62.1108H55.4448V58.8001H51.9757V62.1108H50.558V54.3241H51.9757V57.6919H55.4448V54.3241H56.8625V62.1108Z" fill="black"/>
<path d="M61.504 59.2247L61.7555 60.204H61.7988L63.713 54.3241H65.2891L62.0144 63.3055C61.8172 63.8279 61.5353 64.2848 61.1687 64.6726C60.8021 65.0604 60.3056 65.2557 59.6829 65.2557C59.5677 65.2557 59.4213 65.2419 59.2435 65.2161C59.0666 65.1893 58.9294 65.1645 58.8336 65.1405L58.9772 64.025C58.9487 64.0204 59.0344 64.025 59.2324 64.0397C59.4305 64.0545 59.5576 64.0609 59.6101 64.0609C59.9122 64.0609 60.16 63.9264 60.3516 63.6574C60.5432 63.3885 60.7045 63.0909 60.8334 62.7648L61.1715 61.9514L58.2781 54.3232H59.8616L61.504 59.2247Z" fill="black"/>
<path d="M68.1691 57.6127H70.0114C70.1072 56.5957 70.461 55.7694 71.0726 55.1338C71.6843 54.4982 72.482 54.1804 73.4658 54.1804C74.5455 54.1804 75.3985 54.5525 76.0239 55.2959C76.6503 56.0402 76.9635 56.9899 76.9635 58.146V58.3045C76.9635 59.4661 76.6513 60.4158 76.0276 61.1546C75.404 61.8933 74.5547 62.2627 73.4797 62.2627C72.4719 62.2627 71.6594 61.9357 71.0431 61.2808C70.4269 60.6258 70.0796 59.7728 70.0031 58.7227H68.1682V62.1126H66.7505V54.3259H68.1682V57.6127H68.1691ZM71.4079 58.3035C71.4079 59.1289 71.5811 59.8106 71.9293 60.3476C72.2775 60.8847 72.7934 61.1536 73.4806 61.1536C74.1567 61.1536 74.6707 60.8847 75.0208 60.3476C75.3708 59.8106 75.5458 59.1289 75.5458 58.3035V58.1451C75.5458 57.3299 75.3699 56.6509 75.0171 56.1084C74.6643 55.5667 74.1475 55.295 73.4658 55.295C72.7897 55.295 72.2775 55.5658 71.9293 56.1084C71.5811 56.6509 71.4079 57.3299 71.4079 58.1451V58.3035Z" fill="black"/>
<path d="M88.6801 62.1108H87.2624V55.447H83.7868V62.1108H82.3691V54.3241H88.681L88.6801 62.1108Z" fill="black"/>
<path d="M90.5197 58.1451C90.5197 56.9936 90.8311 56.0448 91.4556 55.2987C92.0793 54.5525 92.9258 54.1794 93.9962 54.1794C95.0759 54.1794 95.9289 54.5516 96.5543 55.295C97.1807 56.0393 97.4939 56.989 97.4939 58.1451V58.3035C97.4939 59.4651 97.1816 60.4149 96.558 61.1536C95.9335 61.8924 95.0841 62.2618 94.0101 62.2618C92.935 62.2618 92.0848 61.8915 91.4584 61.15C90.832 60.4084 90.5188 59.4605 90.5188 58.3035V58.1451H90.5197ZM91.9374 58.3035C91.9374 59.1289 92.1106 59.8106 92.4588 60.3476C92.8061 60.8847 93.3229 61.1536 94.0101 61.1536C94.6862 61.1536 95.1993 60.8847 95.5503 60.3476C95.9003 59.8106 96.0753 59.1289 96.0753 58.3035V58.1451C96.0753 57.3299 95.8994 56.651 95.5466 56.1084C95.1938 55.5667 94.677 55.295 93.9953 55.295C93.3192 55.295 92.8061 55.5658 92.4588 56.1084C92.1106 56.651 91.9374 57.3299 91.9374 58.1451V58.3035Z" fill="black"/>
<path d="M101.511 58.8074H100.784V62.1108H99.3665V54.3241H100.784V57.6127H101.388L104.173 54.3241H105.836L105.851 54.36L102.619 58.0595L106.095 62.0749L106.08 62.1108H104.338L101.511 58.8074Z" fill="black"/>
<path d="M110.208 59.2247L110.459 60.204H110.503L112.417 54.3241H113.993L110.718 63.3055C110.521 63.8279 110.239 64.2848 109.873 64.6726C109.506 65.0604 109.009 65.2557 108.387 65.2557C108.272 65.2557 108.125 65.2419 107.947 65.2161C107.77 65.1893 107.632 65.1645 107.537 65.1405L107.681 64.025C107.653 64.0204 107.737 64.025 107.936 64.0397C108.135 64.0545 108.261 64.0609 108.314 64.0609C108.616 64.0609 108.863 63.9264 109.055 63.6574C109.247 63.3885 109.408 63.0909 109.537 62.7648L109.875 61.9514L106.982 54.3232H108.565L110.208 59.2247Z" fill="black"/>
<path d="M121.733 62.1108H120.315V55.447H116.84V62.1108H115.422V54.3241H121.734L121.733 62.1108Z" fill="black"/>
<path d="M126.109 58.8074H125.383V62.1108H123.965V54.3241H125.383V57.6127H125.987L128.772 54.3241H130.434L130.449 54.36L127.218 58.0595L130.693 62.0749L130.678 62.1108H128.936L126.109 58.8074Z" fill="black"/>
<path d="M134.806 59.2247L135.057 60.204H135.101L137.015 54.3241H138.591L135.316 63.3055C135.119 63.8279 134.837 64.2848 134.471 64.6726C134.104 65.0604 133.608 65.2557 132.985 65.2557C132.87 65.2557 132.723 65.2419 132.545 65.2161C132.369 65.1893 132.231 65.1645 132.136 65.1405L132.279 64.025C132.251 64.0204 132.336 64.025 132.534 64.0397C132.732 64.0545 132.86 64.0609 132.912 64.0609C133.214 64.0609 133.462 63.9264 133.654 63.6574C133.845 63.3885 134.006 63.0909 134.135 62.7648L134.473 61.9514L131.58 54.3232H133.164L134.806 59.2247Z" fill="black"/>
</svg>
