<svg width="16" height="55" viewBox="0 0 16 55" fill="none" xmlns="http://www.w3.org/2000/svg">
<path fill-rule="evenodd" clip-rule="evenodd" d="M14 4.52201C14.1874 4.70967 14.2925 4.96405 14.2923 5.22922C14.2921 5.49438 14.1867 5.74862 13.999 5.93601L7.46905 12.466C7.28677 12.6486 7.041 12.7536 6.78308 12.7592C6.52517 12.7648 6.27507 12.6705 6.08505 12.496L2.82505 9.51001C2.62959 9.33072 2.51335 9.08113 2.50191 8.81614C2.49047 8.55116 2.58476 8.29248 2.76405 8.09701C2.94334 7.90155 3.19293 7.78531 3.45792 7.77387C3.72291 7.76243 3.98159 7.85672 4.17705 8.03601L6.37805 10.053C6.47301 10.14 6.59784 10.1869 6.72656 10.1841C6.85528 10.1813 6.97796 10.129 7.06905 10.038L12.585 4.52301C12.7726 4.33554 13.0269 4.23022 13.292 4.23022C13.5572 4.23022 13.8115 4.33554 13.999 4.52301L14 4.52201Z" fill="#168457"/>
<path fill-rule="evenodd" clip-rule="evenodd" d="M14 23.522C14.1874 23.7097 14.2925 23.9641 14.2923 24.2292C14.2921 24.4944 14.1867 24.7486 13.999 24.936L7.46905 31.466C7.28677 31.6486 7.041 31.7536 6.78308 31.7592C6.52517 31.7648 6.27507 31.6705 6.08505 31.496L2.82505 28.51C2.62959 28.3307 2.51335 28.0811 2.50191 27.8161C2.49047 27.5512 2.58476 27.2925 2.76405 27.097C2.94334 26.9015 3.19293 26.7853 3.45792 26.7739C3.72291 26.7624 3.98159 26.8567 4.17705 27.036L6.37805 29.053C6.47301 29.14 6.59784 29.1869 6.72656 29.1841C6.85528 29.1813 6.97796 29.129 7.06905 29.038L12.585 23.523C12.7726 23.3355 13.0269 23.2302 13.292 23.2302C13.5572 23.2302 13.8115 23.3355 13.999 23.523L14 23.522Z" fill="#168457"/>
<path fill-rule="evenodd" clip-rule="evenodd" d="M14 42.522C14.1874 42.7097 14.2925 42.964 14.2923 43.2292C14.2921 43.4944 14.1867 43.7486 13.999 43.936L7.46905 50.466C7.28677 50.6486 7.041 50.7536 6.78308 50.7592C6.52517 50.7648 6.27507 50.6705 6.08505 50.496L2.82505 47.51C2.62959 47.3307 2.51335 47.0811 2.50191 46.8161C2.49047 46.5511 2.58476 46.2925 2.76405 46.097C2.94334 45.9015 3.19293 45.7853 3.45792 45.7739C3.72291 45.7624 3.98159 45.8567 4.17705 46.036L6.37805 48.053C6.47301 48.1399 6.59784 48.1869 6.72656 48.1841C6.85528 48.1813 6.97796 48.129 7.06905 48.038L12.585 42.523C12.7726 42.3355 13.0269 42.2302 13.292 42.2302C13.5572 42.2302 13.8115 42.3355 13.999 42.523L14 42.522Z" fill="#168457"/>
</svg>
