<svg width="16" height="93" viewBox="0 0 16 93" fill="none" xmlns="http://www.w3.org/2000/svg">
<path fill-rule="evenodd" clip-rule="evenodd" d="M14 4.52201C14.1873 4.70967 14.2925 4.96405 14.2923 5.22922C14.2921 5.49438 14.1866 5.74862 13.999 5.93601L7.46899 12.466C7.28671 12.6486 7.04093 12.7536 6.78302 12.7592C6.5251 12.7648 6.27501 12.6705 6.08499 12.496L2.82499 9.51001C2.62952 9.33072 2.51329 9.08113 2.50185 8.81614C2.49041 8.55116 2.5847 8.29248 2.76399 8.09701C2.94328 7.90155 3.19287 7.78531 3.45786 7.77387C3.72284 7.76243 3.98152 7.85672 4.17699 8.03601L6.37799 10.053C6.47294 10.14 6.59778 10.1869 6.7265 10.1841C6.85522 10.1813 6.9779 10.129 7.06899 10.038L12.585 4.52301C12.7725 4.33554 13.0268 4.23022 13.292 4.23022C13.5572 4.23022 13.8115 4.33554 13.999 4.52301L14 4.52201Z" fill="#168457"/>
<path fill-rule="evenodd" clip-rule="evenodd" d="M14 23.522C14.1874 23.7097 14.2925 23.9641 14.2923 24.2292C14.2921 24.4944 14.1867 24.7486 13.999 24.936L7.46905 31.466C7.28677 31.6486 7.041 31.7536 6.78308 31.7592C6.52517 31.7648 6.27507 31.6705 6.08505 31.496L2.82505 28.51C2.62959 28.3307 2.51335 28.0811 2.50191 27.8161C2.49047 27.5512 2.58476 27.2925 2.76405 27.097C2.94334 26.9015 3.19293 26.7853 3.45792 26.7739C3.72291 26.7624 3.98159 26.8567 4.17705 27.036L6.37805 29.053C6.47301 29.14 6.59784 29.1869 6.72656 29.1841C6.85528 29.1813 6.97796 29.129 7.06905 29.038L12.585 23.523C12.7726 23.3355 13.0269 23.2302 13.292 23.2302C13.5572 23.2302 13.8115 23.3355 13.999 23.523L14 23.522Z" fill="#168457"/>
<path fill-rule="evenodd" clip-rule="evenodd" d="M14 42.522C14.1873 42.7097 14.2925 42.964 14.2923 43.2292C14.2921 43.4944 14.1866 43.7486 13.999 43.936L7.46899 50.466C7.28671 50.6486 7.04093 50.7536 6.78302 50.7592C6.5251 50.7648 6.27501 50.6705 6.08499 50.496L2.82499 47.51C2.62952 47.3307 2.51329 47.0811 2.50185 46.8161C2.49041 46.5511 2.5847 46.2925 2.76399 46.097C2.94328 45.9015 3.19287 45.7853 3.45786 45.7739C3.72284 45.7624 3.98152 45.8567 4.17699 46.036L6.37799 48.053C6.47294 48.1399 6.59778 48.1869 6.7265 48.1841C6.85522 48.1813 6.9779 48.129 7.06899 48.038L12.585 42.523C12.7725 42.3355 13.0268 42.2302 13.292 42.2302C13.5572 42.2302 13.8115 42.3355 13.999 42.523L14 42.522Z" fill="#168457"/>
<path fill-rule="evenodd" clip-rule="evenodd" d="M14 61.522C14.1873 61.7097 14.2925 61.964 14.2923 62.2292C14.2921 62.4944 14.1866 62.7486 13.999 62.936L7.46899 69.466C7.28671 69.6486 7.04093 69.7536 6.78302 69.7592C6.5251 69.7648 6.27501 69.6705 6.08499 69.496L2.82499 66.51C2.62952 66.3307 2.51329 66.0811 2.50185 65.8161C2.49041 65.5511 2.5847 65.2925 2.76399 65.097C2.94328 64.9015 3.19287 64.7853 3.45786 64.7739C3.72284 64.7624 3.98152 64.8567 4.17699 65.036L6.37799 67.053C6.47294 67.1399 6.59778 67.1869 6.7265 67.1841C6.85522 67.1813 6.9779 67.129 7.06899 67.038L12.585 61.523C12.7725 61.3355 13.0268 61.2302 13.292 61.2302C13.5572 61.2302 13.8115 61.3355 13.999 61.523L14 61.522Z" fill="#168457"/>
<path fill-rule="evenodd" clip-rule="evenodd" d="M14 80.522C14.1873 80.7097 14.2925 80.964 14.2923 81.2292C14.2921 81.4944 14.1866 81.7486 13.999 81.936L7.46899 88.466C7.28671 88.6486 7.04093 88.7536 6.78302 88.7592C6.5251 88.7648 6.27501 88.6705 6.08499 88.496L2.82499 85.51C2.62952 85.3307 2.51329 85.0811 2.50185 84.8161C2.49041 84.5511 2.5847 84.2925 2.76399 84.097C2.94328 83.9015 3.19287 83.7853 3.45786 83.7739C3.72284 83.7624 3.98152 83.8567 4.17699 84.036L6.37799 86.053C6.47294 86.1399 6.59778 86.1869 6.7265 86.1841C6.85522 86.1813 6.9779 86.129 7.06899 86.038L12.585 80.523C12.7725 80.3355 13.0268 80.2302 13.292 80.2302C13.5572 80.2302 13.8115 80.3355 13.999 80.523L14 80.522Z" fill="#168457"/>
</svg>
