<svg width="16" height="73" viewBox="0 0 16 73" fill="none" xmlns="http://www.w3.org/2000/svg">
<path fill-rule="evenodd" clip-rule="evenodd" d="M14 4.022C14.1874 4.20966 14.2925 4.46405 14.2923 4.72921C14.2921 4.99437 14.1867 5.24861 13.999 5.436L7.46905 11.966C7.28677 12.1486 7.041 12.2536 6.78308 12.2592C6.52517 12.2648 6.27507 12.1705 6.08505 11.996L2.82505 9.01C2.62959 8.83072 2.51335 8.58113 2.50191 8.31614C2.49047 8.05115 2.58476 7.79247 2.76405 7.597C2.94334 7.40154 3.19293 7.2853 3.45792 7.27386C3.72291 7.26242 3.98159 7.35672 4.17705 7.536L6.37805 9.553C6.47301 9.63995 6.59784 9.68691 6.72656 9.68412C6.85528 9.68133 6.97796 9.62899 7.06905 9.538L12.585 4.023C12.7726 3.83553 13.0269 3.73022 13.292 3.73022C13.5572 3.73022 13.8115 3.83553 13.999 4.023L14 4.022Z" fill="#168457"/>
<path fill-rule="evenodd" clip-rule="evenodd" d="M14 23.022C14.1874 23.2097 14.2925 23.4641 14.2923 23.7292C14.2921 23.9944 14.1867 24.2486 13.999 24.436L7.46905 30.966C7.28677 31.1486 7.041 31.2536 6.78308 31.2592C6.52517 31.2648 6.27507 31.1705 6.08505 30.996L2.82505 28.01C2.62959 27.8307 2.51335 27.5811 2.50191 27.3161C2.49047 27.0512 2.58476 26.7925 2.76405 26.597C2.94334 26.4015 3.19293 26.2853 3.45792 26.2739C3.72291 26.2624 3.98159 26.3567 4.17705 26.536L6.37805 28.553C6.47301 28.64 6.59784 28.6869 6.72656 28.6841C6.85528 28.6813 6.97796 28.629 7.06905 28.538L12.585 23.023C12.7726 22.8355 13.0269 22.7302 13.292 22.7302C13.5572 22.7302 13.8115 22.8355 13.999 23.023L14 23.022Z" fill="#168457"/>
<path fill-rule="evenodd" clip-rule="evenodd" d="M14 42.022C14.1874 42.2097 14.2925 42.464 14.2923 42.7292C14.2921 42.9944 14.1867 43.2486 13.999 43.436L7.46905 49.966C7.28677 50.1486 7.041 50.2536 6.78308 50.2592C6.52517 50.2648 6.27507 50.1705 6.08505 49.996L2.82505 47.01C2.62959 46.8307 2.51335 46.5811 2.50191 46.3161C2.49047 46.0511 2.58476 45.7925 2.76405 45.597C2.94334 45.4015 3.19293 45.2853 3.45792 45.2739C3.72291 45.2624 3.98159 45.3567 4.17705 45.536L6.37805 47.553C6.47301 47.6399 6.59784 47.6869 6.72656 47.6841C6.85528 47.6813 6.97796 47.629 7.06905 47.538L12.585 42.023C12.7726 41.8355 13.0269 41.7302 13.292 41.7302C13.5572 41.7302 13.8115 41.8355 13.999 42.023L14 42.022Z" fill="#168457"/>
<path fill-rule="evenodd" clip-rule="evenodd" d="M14 61.022C14.1874 61.2097 14.2925 61.464 14.2923 61.7292C14.2921 61.9944 14.1867 62.2486 13.999 62.436L7.46905 68.966C7.28677 69.1486 7.041 69.2536 6.78308 69.2592C6.52517 69.2648 6.27507 69.1705 6.08505 68.996L2.82505 66.01C2.62959 65.8307 2.51335 65.5811 2.50191 65.3161C2.49047 65.0511 2.58476 64.7925 2.76405 64.597C2.94334 64.4015 3.19293 64.2853 3.45792 64.2739C3.72291 64.2624 3.98159 64.3567 4.17705 64.536L6.37805 66.553C6.47301 66.6399 6.59784 66.6869 6.72656 66.6841C6.85528 66.6813 6.97796 66.629 7.06905 66.538L12.585 61.023C12.7726 60.8355 13.0269 60.7302 13.292 60.7302C13.5572 60.7302 13.8115 60.8355 13.999 61.023L14 61.022Z" fill="#168457"/>
</svg>
